<svg xmlns="http://www.w3.org/2000/svg" xmlns:xlink="http://www.w3.org/1999/xlink" width="400" height="400" viewBox="0 0 400 400">
<rect data-name="background" width="100%" height="100%" fill="#03045E"/><g data-name="watermark" class="watermark-logodesign" stroke="#ffffff" transform="translate(40, 280) scale(1.5) rotate(-45)" style="opacity:0.040000010281801224;"><path fill="#000000" d="M19.52,53.48c-10.32,0-17.72-7.64-17.72-17.32c0-10,8.2-17.76,18.32-17.76c10.36,0,17.76,7.48,17.76,17.56c0,6.24-3.56,9.84-7.84,9.84c-2.96,0-4.44-1.56-5.04-3.72c-1.48,2-3.64,3.08-6.16,3.08c-4.84,0-8.52-3.8-8.52-8.96c0-5.2,3.64-9,8.56-9c2.36,0,4.52,0.96,6,3l0-2.52l3.44,0l0,12.48c0,1.68,0.6,2.96,2.24,2.96c2.12,0,4.2-2.52,4.2-7.12c0-8.28-5.76-14.68-14.6-14.68c-8.48,0-15.24,6.44-15.24,14.84c0,8.16,6.24,14.4,14.68,14.4c2.88,0,6.04-0.68,8.2-2.4l0.8,2.88c-2.36,1.68-5.68,2.44-9.08,2.44z M19.36,41.92c3.24,0,5.64-2.4,5.64-5.76c0-3.32-2.36-5.68-5.64-5.68c-3.2,0-5.48,2.36-5.48,5.68s2.32,5.76,5.48,5.76z M46.84,42.4l14.72,0l0,4l-19.08,0l0-28l4.36,0l0,24z M74.8,46.92c-6.16,0-10.68-4.56-10.68-10.6c0-6,4.52-10.56,10.68-10.56s10.68,4.56,10.68,10.56c0,6.04-4.52,10.6-10.68,10.6z M74.8,43.12c3.84,0,6.6-2.92,6.6-6.76c0-3.88-2.76-6.8-6.6-6.8s-6.6,2.92-6.6,6.8c0,3.84,2.76,6.76,6.6,6.76z M105.68,26.28l4.2,0l0,19.4c0,5.6-4.08,9.64-10.2,9.64c-4.84,0-7.92-2.24-9.6-5.24l3.68-1.36c1.2,2,3.12,3.08,6,3.08c3.84,0,5.88-2.64,5.92-6.08l0-2.96c-1.56,2.12-4,3.4-7.08,3.4c-5.84,0-10.04-4.44-10.04-10.2c0-5.96,4.2-10.2,10.04-10.2c3.08,0,5.52,1.28,7.08,3.36l0-2.84z M99.24,42.4c3.72,0,6.56-2.72,6.56-6.44s-2.84-6.4-6.56-6.4c-3.88,0-6.56,2.68-6.56,6.4s2.68,6.44,6.56,6.44z M124.92,46.92c-6.16,0-10.68-4.56-10.68-10.6c0-6,4.52-10.56,10.68-10.56s10.68,4.56,10.68,10.56c0,6.04-4.52,10.6-10.68,10.6z M124.92,43.12c3.84,0,6.6-2.92,6.6-6.76c0-3.88-2.76-6.8-6.6-6.8s-6.6,2.92-6.6,6.8c0,3.84,2.76,6.76,6.6,6.76z M141.88,46.68c-1.56,0-2.76-1.2-2.76-2.72c0-1.48,1.2-2.68,2.76-2.68s2.76,1.2,2.76,2.68c0,1.52-1.2,2.72-2.76,2.72z M158.2,46.92c-5.68,0-10-4.52-10-10.6c0-6.04,4.32-10.56,10-10.56c3.24,0,5.72,1.4,7.24,3.56l0-3.04l4.16,0l0,20.12l-4.16,0l0-3.04c-1.52,2.16-4,3.56-7.24,3.56z M158.88,43.16c3.68,0,6.64-2.88,6.64-6.84c0-3.92-2.96-6.8-6.64-6.8c-3.84,0-6.56,2.84-6.56,6.8s2.72,6.84,6.56,6.84z M186.6,25.76c5.68,0,10.04,4.52,10.04,10.56c0,6.08-4.36,10.6-10.04,10.6c-3.2,0-5.68-1.4-7.2-3.56l0,11.44l-4.2,0l0-28.52l4.2,0l0,3.04c1.52-2.16,4-3.56,7.2-3.56z M185.92,43.16c3.84,0,6.56-2.88,6.56-6.84s-2.72-6.8-6.56-6.8c-3.68,0-6.64,2.88-6.64,6.8c0,3.96,2.96,6.84,6.64,6.84z M212.36,25.76c5.68,0,10.04,4.52,10.04,10.56c0,6.08-4.36,10.6-10.04,10.6c-3.2,0-5.68-1.4-7.2-3.56l0,11.44l-4.2,0l0-28.52l4.2,0l0,3.04c1.52-2.16,4-3.56,7.2-3.56z M211.68,43.16c3.84,0,6.56-2.88,6.56-6.84s-2.72-6.8-6.56-6.8c-3.68,0-6.64,2.88-6.64,6.8c0,3.96,2.96,6.84,6.64,6.84z"/></g><g data-name="business_name" fill="#ADE8F4" data="id:276" transform="translate(120.74764216277639,135.2167370894673) scale(1.3701998884564492)"><path d="M22,40.84l10.4-23.64l8.96,0l0,1.52q-1.28,0.04-2.06,0.32t-1.2,0.94t-0.56,1.82t-0.14,2.96l0,15.68q0,2,0.16,3.16t0.62,1.8t1.32,0.84t2.26,0.24l0,1.52l-12.96,0l0-1.52q1.4-0.04,2.26-0.26t1.34-0.82t0.64-1.7t0.16-2.98l0-18.56l-0.4,0l-11.68,26.24l-0.88,0l-11.48-26.24l-0.16,0l0,18.28q0,2,0.16,3.16t0.62,1.8t1.32,0.84t2.26,0.24l0,1.52l-11.16,0l0-1.52q1.4-0.04,2.26-0.26t1.34-0.82t0.64-1.7t0.16-2.98l0-16.24q0-1.68-0.14-2.78t-0.56-1.74t-1.22-0.9t-2.08-0.34l0-1.52l9.56,0l10.08,23.64l0.16,0z M57.48,29.68q1.92-1.48,2.8-3.02t0.88-3.34q0-1.88-0.84-2.98t-2.24-1.1q-2.64,0-2.64,4.04q0,1.76,0.52,3.38t1.52,3.02z M55.2,33.44q-2.52,1.44-3.92,3.38t-1.4,4.02q0,2.2,1.42,3.62t3.66,1.42q1.68,0,3.6-0.84t3.64-2.36z M65.08,39.64q0.96-1.2,1.78-2.34t1.42-2.16t0.92-1.86t0.32-1.36q0-0.64-0.58-0.92t-1.86-0.28l0-1.4l9.2,0l0,1.4q-0.88,0-1.5,0.1t-1.1,0.34t-0.9,0.64t-0.82,1.04l-5.68,8.32q1.68,2.28,3.5,3.46t3.62,1.18q0.52,0,0.92-0.1t0.74-0.36t0.64-0.7t0.62-1.12l1,0.28q-0.44,2.24-1.96,3.42t-3.96,1.18q-1,0-1.9-0.22t-1.82-0.74t-1.96-1.36t-2.28-2.08q-2,2.08-4.62,3.24t-5.34,1.16q-1.84,0-3.38-0.54t-2.66-1.48t-1.76-2.24t-0.64-2.82q0-2.72,2.16-5.02t6.92-4.62q-1.28-1.88-1.86-3.52t-0.58-3.44q0-1.76,0.5-3.22t1.42-2.5t2.2-1.62t2.84-0.58q1.36,0,2.5,0.44t1.98,1.24t1.3,1.88t0.46,2.4q0,2.24-1.46,4.2t-4.82,4.24z M109.52,41.64q0,1.52,0.16,2.46t0.62,1.44t1.32,0.7t2.26,0.24l0,1.52l-12.96,0l0-1.52q1.4-0.04,2.26-0.24t1.34-0.68t0.64-1.36t0.16-2.28l0-8.68l-16.2,0l0,8.4q0,1.52,0.16,2.46t0.62,1.44t1.32,0.7t2.26,0.24l0,1.52l-12.96,0l0-1.52q1.4-0.04,2.26-0.24t1.34-0.68t0.64-1.36t0.16-2.28l0-18.64q0-1.4-0.14-2.26t-0.56-1.36t-1.22-0.68t-2.08-0.26l0-1.52l12.16,0l0,1.52q-1.28,0.04-2.06,0.24t-1.2,0.72t-0.56,1.44t-0.14,2.44l0,7.68l16.2,0l0-7.96q0-1.4-0.14-2.26t-0.56-1.36t-1.22-0.68t-2.08-0.26l0-1.52l12.16,0l0,1.52q-1.28,0.04-2.06,0.24t-1.2,0.72t-0.56,1.44t-0.14,2.44l0,18.08z"/></g><g data-name="slogan" fill="#ADE8F4" data="id:276" transform="translate(119.34662830379159,212.63440454932953) scale(0.6013522818171432)"><path d="M1.52,48l0-1.52q1.52-0.04,2.46-0.22t1.46-0.68t0.7-1.36t0.18-2.3l0-18.64q0-1.4-0.14-2.26t-0.56-1.36t-1.22-0.68t-2.08-0.26l0-1.52l14.04,0q3.6,0,6.66,1.2t5.28,3.32t3.46,5.04t1.24,6.36q0,3.28-1.16,6.02t-3.26,4.7t-5.02,3.06t-6.4,1.1l-15.64,0z M11.2,19.16q-0.68,0-0.68,0.68l0,21.64q0,4.56,5.96,4.56q5.48,0,8.4-3.26t2.92-9.58q0-3.32-0.8-5.92t-2.3-4.4t-3.62-2.76t-4.8-0.96l-5.08,0z M44.48,41.64q0,1.56,0.14,2.5t0.54,1.48t1.12,0.74t1.92,0.24l0,1.4l-11.48,0l0-1.4q1.2-0.04,1.96-0.26t1.18-0.72t0.56-1.4t0.14-2.3l0-5.12q0-2.32-0.06-3.82t-0.22-2.06q-0.2-0.92-0.92-1.26t-2.72-0.34l0-1.4l7.84-1.52l0,15.24z M39.88,18.28q0-1.04,0.72-1.76t1.76-0.72t1.76,0.72t0.72,1.76t-0.72,1.76t-1.76,0.72t-1.76-0.72t-0.72-1.76z M52.44,48l-0.88,0l0-6.88l1,0q1.56,5.64,5.68,5.64q1.6,0,2.54-0.78t0.94-2.38q0-0.6-0.18-1.02t-0.68-0.88t-1.4-1.06t-2.38-1.52q-1.36-0.84-2.36-1.56t-1.68-1.46t-1.02-1.58t-0.34-1.96q0-1.36,0.46-2.5t1.26-1.94t1.88-1.26t2.36-0.46q1.08,0,2.24,0.34t2.04,0.9l0.8-0.84l0.76,0l0,5.76l-1.04,0q-0.88-2.44-1.92-3.48t-2.56-1.04q-1.36,0-2.18,0.72t-0.82,2q0,0.68,0.22,1.18t0.7,0.98t1.22,0.98t1.78,1.14q1.72,1.08,2.94,1.92t1.98,1.66t1.12,1.7t0.36,2q0,2.84-1.84,4.46t-4.84,1.62q-3.12,0-5.36-1.8z M68.76,29.32l0-1.48q2.12-1.24,3.32-2.48t1.84-2.96l1.16,0l0,5.04l5.36,0l0,1.88l-5.36,0l0,12.16q0,1.4,0.14,2.36t0.46,1.54t0.84,0.82t1.32,0.24q1,0,1.7-0.42t1.38-1.42l1,0.76q-0.56,1.48-1.94,2.26t-3.42,0.78q-2.64,0-4.02-1.26t-1.38-3.62l0-14.2l-2.4,0z M91.16,41.64q0,1.64,0.08,2.6t0.42,1.46t0.98,0.66t1.8,0.24l0,1.4l-10.64,0l0-1.4q1.16-0.04,1.84-0.22t1.04-0.66t0.46-1.38t0.1-2.42l0-4.68q0-2.72-0.06-4.24t-0.4-2.24t-1.06-0.86t-2-0.14l0-1.4l7-1.52l0.56,4.96l0.16,0q0.52-1.2,1.3-2.2t1.7-1.7t1.92-1.1t2.04-0.4q1.28,0,2.02,0.62t0.74,1.66q0,0.96-0.6,1.5t-1.72,0.54q-0.64,0-1.08-0.16t-0.78-0.34t-0.64-0.34t-0.66-0.16q-1.08,0-2.16,1.38t-1.68,3.5q-0.32,1.16-0.5,2.62t-0.18,3.06l0,1.36z M110.48,41.64q0,1.56,0.14,2.5t0.54,1.48t1.12,0.74t1.92,0.24l0,1.4l-11.48,0l0-1.4q1.2-0.04,1.96-0.26t1.18-0.72t0.56-1.4t0.14-2.3l0-5.12q0-2.32-0.06-3.82t-0.22-2.06q-0.2-0.92-0.92-1.26t-2.72-0.34l0-1.4l7.84-1.52l0,15.24z M105.88,18.28q0-1.04,0.72-1.76t1.76-0.72t1.76,0.72t0.72,1.76t-0.72,1.76t-1.76,0.72t-1.76-0.72t-0.72-1.76z M122.56,39.64q0,1.52,0.44,2.78t1.22,2.16t1.88,1.42t2.38,0.52q1.4,0,2.54-0.64t1.96-1.82t1.28-2.84t0.46-3.7t-0.48-3.74t-1.32-2.92t-2.02-1.9t-2.58-0.68q-1.64,0-2.92,0.78t-1.96,2.18q-0.88,1.76-0.88,4.84l0,3.56z M122.48,29.64l0.16,0q1.28-1.68,2.82-2.46t3.58-0.78q2.16,0,4.02,0.84t3.24,2.32t2.16,3.5t0.78,4.34q0,2.36-0.8,4.38t-2.18,3.5t-3.26,2.32t-4.08,0.84q-2.28,0-4.26-0.84t-3.26-2.28l-1.88,2.68l-0.88,0l0-24.16q0-4.04-0.52-5.16q-0.12-0.28-0.28-0.46t-0.48-0.32t-0.88-0.26t-1.52-0.24l0-1l7.52-1.6l0,14.84z M159.68,33.2q0-1.64-0.08-2.58t-0.42-1.44t-1-0.68t-1.82-0.3l0-1.4l7.24,0l0,12.28q0,2.28,0.06,3.72t0.18,2.16q0.08,0.52,0.26,0.82t0.54,0.48t0.94,0.24t1.5,0.06l0,1.4l-6.6,0.48l-0.44-4.8l-0.16,0q-1.52,2.48-3.5,3.62t-4.14,1.14q-1.68,0-3.26-0.64t-2.38-1.72q-0.68-0.88-0.98-2.44t-0.3-4.04l0-6.36q0-1.64-0.08-2.58t-0.42-1.44t-1-0.68t-1.82-0.3l0-1.4l7.24,0l0,10.92q0,4.36,1.02,6.32t3.26,1.96q3.52,0,5.48-4.6q0.2-0.48,0.32-0.88t0.2-0.88t0.12-1.08t0.04-1.44l0-3.92z M169.56,29.32l0-1.48q2.12-1.24,3.32-2.48t1.84-2.96l1.16,0l0,5.04l5.36,0l0,1.88l-5.36,0l0,12.16q0,1.4,0.14,2.36t0.46,1.54t0.84,0.82t1.32,0.24q1,0,1.7-0.42t1.38-1.42l1,0.76q-0.56,1.48-1.94,2.26t-3.42,0.78q-2.64,0-4.02-1.26t-1.38-3.62l0-14.2l-2.4,0z M192.2,41.64q0,1.56,0.14,2.5t0.54,1.48t1.12,0.74t1.92,0.24l0,1.4l-11.48,0l0-1.4q1.2-0.04,1.96-0.26t1.18-0.72t0.56-1.4t0.14-2.3l0-5.12q0-2.32-0.06-3.82t-0.22-2.06q-0.2-0.92-0.92-1.26t-2.72-0.34l0-1.4l7.84-1.52l0,15.24z M187.6,18.28q0-1.04,0.72-1.76t1.76-0.72t1.76,0.72t0.72,1.76t-0.72,1.76t-1.76,0.72t-1.76-0.72t-0.72-1.76z M209.72,26.4q2.28,0,4.32,0.82t3.58,2.26t2.44,3.42t0.9,4.34q0,2.44-0.9,4.48t-2.44,3.52t-3.58,2.32t-4.32,0.84q-2.24,0-4.26-0.82t-3.54-2.3t-2.4-3.54t-0.88-4.5q0-2.36,0.88-4.36t2.4-3.44t3.54-2.24t4.26-0.8z M209.72,28.32q-1.48,0-2.7,0.64t-2.08,1.82t-1.32,2.84t-0.46,3.66q0,2.08,0.46,3.76t1.32,2.86t2.06,1.82t2.72,0.64t2.76-0.64t2.12-1.84t1.36-2.88t0.48-3.72q0-2-0.48-3.64t-1.36-2.82t-2.12-1.84t-2.76-0.66z M231.52,41.72q0,1.64,0.08,2.58t0.42,1.44t1,0.66t1.82,0.24l0,1.36l-10.48,0l0-1.36q1.12-0.08,1.78-0.24t1.02-0.64t0.46-1.36t0.1-2.4l0-5.32q0-4.76-0.24-5.8q-0.12-0.52-0.3-0.86t-0.54-0.52t-0.92-0.24t-1.44-0.06l0-1.28l6.4-1.52l0.48,3.96l0.16,0q1.52-1.88,3.56-2.92t4.44-1.04q1.84,0,3.36,0.6t2.32,1.64q0.68,0.92,0.96,2.38t0.28,4.02l0,6.68q0,1.64,0.1,2.58t0.42,1.44t0.98,0.66t1.74,0.24l0,1.36l-10.36,0l0-1.36q1.12-0.04,1.78-0.22t1-0.66t0.44-1.38t0.1-2.38l0-5.28q0-2.28-0.24-3.84t-0.78-2.52t-1.42-1.38t-2.12-0.42q-1.8,0-3.3,0.94t-2.34,2.58q-0.2,0.4-0.34,0.76t-0.22,0.84t-0.12,1.1t-0.04,1.58l0,5.36z M253.88,48l-0.88,0l0-6.88l1,0q1.56,5.64,5.68,5.64q1.6,0,2.54-0.78t0.94-2.38q0-0.6-0.18-1.02t-0.68-0.88t-1.4-1.06t-2.38-1.52q-1.36-0.84-2.36-1.56t-1.68-1.46t-1.02-1.58t-0.34-1.96q0-1.36,0.46-2.5t1.26-1.94t1.88-1.26t2.36-0.46q1.08,0,2.24,0.34t2.04,0.9l0.8-0.84l0.76,0l0,5.76l-1.04,0q-0.88-2.44-1.92-3.48t-2.56-1.04q-1.36,0-2.18,0.72t-0.82,2q0,0.68,0.22,1.18t0.7,0.98t1.22,0.98t1.78,1.14q1.72,1.08,2.94,1.92t1.98,1.66t1.12,1.7t0.36,2q0,2.84-1.84,4.46t-4.84,1.62q-3.12,0-5.36-1.8z"/></g></svg>